<svg width="72" height="56" viewBox="0 0 72 56" fill="none" xmlns="http://www.w3.org/2000/svg">
<path d="M57 12.9167H45C43.35 12.9167 42.015 14.2292 42.015 15.8333L42 39.1667C42 40.7708 43.335 42.0833 44.985 42.0833H63C64.65 42.0833 66 40.7708 66 39.1667V21.6667L57 12.9167ZM60 36.25H48V33.3333H60V36.25ZM60 30.4167H48V27.5H60V30.4167ZM55.5 23.125V15.1042L63.75 23.125H55.5Z" fill="#5965E0"/>
<path d="M0 0V0C2.27226 0 4.11429 1.84203 4.11429 4.11429V51.8857C4.11429 54.158 2.27226 56 0 56V56V0Z" fill="#5965E0"/>
</svg>
