<svg width="72" height="56" viewBox="0 0 72 56" fill="none" xmlns="http://www.w3.org/2000/svg">
<path d="M0 0V0C2.27226 0 4.11429 1.84203 4.11429 4.11429V51.8857C4.11429 54.158 2.27226 56 0 56V56V0Z" fill="white"/>
<path d="M57 13.9167H45C43.35 13.9167 42.015 15.2292 42.015 16.8333L42 40.1667C42 41.7708 43.335 43.0833 44.985 43.0833H63C64.65 43.0833 66 41.7708 66 40.1667V22.6667L57 13.9167ZM60 37.25H48V34.3333H60V37.25ZM60 31.4167H48V28.5H60V31.4167ZM55.5 24.125V16.1042L63.75 24.125H55.5Z" fill="#B2B2B2"/>
</svg>
