<svg width="30" height="31" viewBox="0 0 30 31" fill="none" xmlns="http://www.w3.org/2000/svg">
<g clip-path="url(#clip0)">
<path d="M14.3383 6.93822C14.3383 7.62066 14.8897 8.07563 15.4412 8.07563H20.9559L14.3383 0.11377V6.93822Z" fill="#B2B2B2"/>
<path d="M29.3382 5.34585L28.0148 3.98096C27.1324 3.07103 25.8089 3.07103 24.9265 3.98096L20.9559 8.07562L19.8529 9.21303H15.4412C14.2279 9.21303 13.2353 8.1894 13.2353 6.93822V0.11377H2.20588C0.992618 0.11377 0 1.13741 0 2.38859V28.549C0 29.8001 0.992618 30.8238 2.20588 30.8238H18.75C19.9632 30.8238 20.9559 29.8001 20.9559 28.549V17.1749L29.3382 8.53059C30.2206 7.62066 30.2206 6.25577 29.3382 5.34585ZM9.15438 24.7955L9.81615 21.2695L12.5735 24.113L9.15438 24.7955ZM13.4559 23.3169L10.5882 20.3596L22.9412 7.6206L25.8089 10.5779L13.4559 23.3169ZM28.5662 7.73437L26.6912 9.66794L23.8235 6.71068L25.6986 4.77711C26.1397 4.32215 26.8015 4.32215 27.2427 4.77711L28.5662 6.142C29.0073 6.59696 29.0073 7.27941 28.5662 7.73437Z" fill="#B2B2B2"/>
</g>
<defs>
<clipPath id="clip0">
<rect width="30" height="30.9375" fill="white"/>
</clipPath>
</defs>
</svg>
